<svg xmlns="http://www.w3.org/2000/svg" viewBox="0 0 64 64"><rect width="64" height="64" rx="20" fill="#0d6965"/><path fill="#f6f4ed" d="M7.76 41.92Q7.42 41.92 7.25 41.62Q7.08 41.32 7.08 41.1Q7.08 40.44 7.74 40.36Q8.48 40.3 9.16 40.07Q9.85 39.84 9.85 39.28V26.39Q9.85 25.16 9.31 24.72Q8.77 24.28 8.08 24.2Q7.38 24.12 6.88 23.98Q6.68 23.88 6.54 23.72Q6.4 23.56 6.4 23.18Q6.4 22.94 6.52 22.63Q6.64 22.32 6.88 22.3Q9.63 22.18 11.92 22.11Q14.2 22.04 15.36 22.02Q15.52 22.02 15.72 22.18Q15.92 22.34 15.96 22.82V25.06Q16.38 24.6 17.6 23.8Q18.83 23 20.57 22.34Q22.3 21.68 24.28 21.68Q25.4 21.68 26.41 21.93Q27.43 22.18 28.23 22.85Q29.03 23.52 29.47 24.76Q30.12 24.26 31.37 23.54Q32.62 22.82 34.34 22.25Q36.07 21.68 38.13 21.68Q39.6 21.68 40.84 22.14Q42.08 22.6 42.81 23.88Q43.55 25.15 43.55 27.63V38.62Q43.55 39.48 43.98 39.82Q44.41 40.16 45 40.23Q45.59 40.3 46.09 40.36Q46.43 40.4 46.59 40.53Q46.75 40.66 46.75 41.1Q46.75 41.32 46.58 41.62Q46.41 41.92 46.06 41.92H35.35Q35.01 41.92 34.84 41.62Q34.67 41.32 34.67 41.1Q34.67 40.78 34.79 40.59Q34.91 40.4 35.29 40.36Q35.93 40.32 36.57 40.04Q37.21 39.76 37.21 39.28V27.73Q37.21 27.23 37.11 26.52Q37.01 25.81 36.52 25.27Q36.03 24.72 34.83 24.72Q33.28 24.72 32.01 25.38Q30.74 26.03 29.85 26.77Q29.87 26.97 29.87 27.19Q29.88 27.41 29.88 27.63V38.62Q29.88 39.48 30.22 39.82Q30.56 40.16 31.06 40.23Q31.56 40.3 32.06 40.36Q32.4 40.4 32.56 40.53Q32.72 40.66 32.72 41.1Q32.72 41.32 32.55 41.62Q32.38 41.92 32.04 41.92H21.72Q21.38 41.92 21.22 41.62Q21.05 41.32 21.05 41.1Q21.05 40.78 21.17 40.59Q21.29 40.4 21.66 40.36Q22.3 40.32 23.02 40.04Q23.74 39.76 23.74 39.28V27.73Q23.74 27.23 23.6 26.52Q23.46 25.81 22.92 25.27Q22.38 24.72 21.18 24.72Q19.91 24.72 18.99 25.13Q18.07 25.54 17.4 26.11Q16.74 26.69 16.16 27.21V38.62Q16.16 39.78 16.81 40.04Q17.45 40.3 18.19 40.36Q18.61 40.4 18.76 40.52Q18.91 40.64 18.91 41.1Q18.91 41.32 18.74 41.62Q18.57 41.92 18.23 41.92ZM49.86 38.4Q49.86 36.87 50.97 35.78Q52.07 34.69 53.71 34.69Q55.35 34.69 56.47 35.78Q57.6 36.87 57.6 38.4Q57.6 39.96 56.47 41.14Q55.35 42.32 53.71 42.32Q52.07 42.32 50.97 41.14Q49.86 39.96 49.86 38.4Z"/></svg>
